<?xml version="1.0" encoding="UTF-8"?>
<svg width="1200pt" height="1200pt" version="1.1" viewBox="0 0 1200 1200" xmlns="http://www.w3.org/2000/svg">
 <g>
  <path d="m0.70312 801.94v53.137c13.176 89.074 301.45 344.93 367.41 344.93h463.77c65.953 0 354.24-255.85 367.4-344.94v-53.137l-1198.6 0.003906z"/>
  <path d="m860.07 516.5c2.1367-1.6562 52.355-40.992 55.02-89.484 0.45703-8.2695-5.8789-15.348-14.16-15.805-8.2812-0.45703-15.336 5.8789-15.793 14.148-1.9062 34.727-43.02 67.078-43.43 67.402 0.81641-0.64844 1.7031-1.1875 2.6523-1.6445l-2.6406 1.6328c-6.5508 5.0625-7.7539 14.484-2.6992 21.035 5.0547 6.5547 14.488 7.7656 21.051 2.7148z"/>
  <path d="m884.24 716.9c-18.371-4.7773-56.555-5.4102-69.492 26.387-3.1211 7.6797 0.57422 16.414 8.2578 19.547 7.6797 3.1211 16.414-0.57422 19.547-8.2578 6.2656-15.422 33.863-8.7227 34.152-8.6523 8.0156 2.0898 16.211-2.7344 18.289-10.754 2.0742-8.0078-2.7383-16.18-10.754-18.27z"/>
  <path d="m1172.3 654.5c-53.688 24.59-118.25 91.465-94.992 103.69 23.242 12.227 56.473-7.6094 91.992-35.746 35.52-28.152 42.98-86.281 3-67.945z"/>
  <path d="m743.72 467.18c-23.809 0.99609-57.07 6-71.062 37.945-0.011719 0.011719-2.1484 4.8008-2.1484 4.8008-5.1367 11.398-10.441 23.195-5.3516 35.652 5.0156 12.312 18.109 18.758 28.945 23.004 35.82 14.016 78.695 6.1797 97.586-17.867 10.402-13.234 10.98-33.816 1.4531-52.43-10.254-20.043-29.191-31.945-49.422-31.105zm24.383 64.98c-9.4219 12-37.656 18.422-63.086 8.4727-10.297-4.0312-12.18-6.5898-12.254-6.6953 0.15625 0.21484 0.3125 0.71875 0.3125 0.98438-0.046875-1.9922 2.7461-8.1719 4.7656-12.684l2.2695-5.0898c3.9961-9.1211 12.457-18.648 44.82-19.992 12.625-0.52734 19.621 11.184 21.469 14.785 4.3672 8.4688 4.2852 16.93 1.7031 20.219z"/>
  <path d="m551.25 482.54c-25.199-2.7969-44.594 14.258-62.293 31.969-8.6172 8.6172-21.66 21.648-20.891 38.629 0.51562 11.305 6.8164 21.852 19.262 32.219l5.1953 4.3789c22.859 19.367 38.734 30.168 75.18 8.9023 32.711-19.078 34.703-33.926 33.949-52.812-0.085938-2.0156-0.16797-4.1172-0.16797-6.2383-0.003906-26.531-31.324-54.934-50.234-57.047zm20.23 57.051c0 2.7227 0.097656 5.2305 0.19141 7.4414 0.45703 11.219 0.57422 14.23-19.078 25.703-19.98 11.652-21.938 9.9961-40.668-5.8789l-5.375-4.5352c-6.1562-5.125-8.4258-8.8789-8.4961-10.523-0.16797-3.7578 8.7734-12.695 12.133-16.055 15.301-15.312 26.965-24.562 37.777-23.363-0.15625-0.011718-0.23828-0.035156-0.23828-0.035156 6.5234 1.4219 23.754 17.477 23.754 27.246z"/>
  <path d="m679.43 644.99c-30.168-13.715-102.23-41.617-119.82-4.6445-3.7422 7.8242-11.352 16.355-18.059 23.891-11.664 13.078-22.691 25.43-19.008 40.008 2.1367 8.4492 8.5664 14.688 19.152 18.527 35.242 12.805 79.332 25.285 107.75 7.9219 23.316-14.242 31.094-43.117 35.27-58.621 0.71875-2.6641 1.6094-5.9648 2.0156-6.9492 3.168-7.4727 0.09375-16.773-7.2969-20.133zm-45.625 60.109c-18.805 11.484-62.027-3.3477-79.391-9.625 2.6172-3.4922 6.5156-7.9219 9.5156-11.27 8.0039-8.9766 17.051-19.152 22.645-30.758 5.6172-4.6094 35.723 0.64844 68.387 13.715-3.4062 12.398-9.0117 30.52-21.156 37.938zm486.21-144.32c-1.3555-32.566-5.7734-40.066-19.129-54.793l-1.8242-2.0273c-11.461-12.73-26.867-18.07-43.402-15.047-25.367 4.6445-46.836 27.168-54.156 45.996-1.9453 4.9922-4.4297 9.8516-6.8281 14.543-8.4961 16.656-19.078 37.379-0.33594 61.883 24.168 31.598 49.727 33.648 85.465 6.8516 8.3047-6.2383 14.438-9.8398 19.367-12.742 18.633-10.98 21.945-18.086 20.844-44.664zm-472.51-203.41c-20.867-3.1562-70.609-7.6211-81.73 19.066-8.9414 21.457-6.1445 61.223-5.7969 65.676 0.53906 6.9961 5.8672 12.684 12.816 13.68 6.7188 0.97266 66.406 9 94.801-5.1836 17.102-8.5547 25.355-28.5 21.07-50.809-4.5625-23.695-21.492-40.797-41.16-42.43z"/>
  <path d="m151.93 466.13 0.40625-0.058594c-6.4062-43.066-10.094-68.496-16.523-105.31-36.203-207-69.18-363.58-92.266-360.72-0.12109 0-0.21484 0-0.27734 0.035156-0.058594 0-0.13281 0.011719-0.17969 0.011719-0.058594 0.027344-0.12109 0.027344-0.17969 0.039063-0.070312 0.011718-0.16797 0.023437-0.27734 0.046875-23.039 3.1914-5.1719 180.43 28.668 383.83 6.1328 36.887 9.793 50.914 17.258 94.5 0 0-66.359 50.125-52.488 113.9 10.332 47.496 65.039 171.98 70.766 179.14-13.234-72.023-16.777-164.75 1.2227-164.75 12-3 41.258 96 58.5 156.76 0 0-3.7578-165.76 10.5-166.5 18.203-0.96094 35.867 86.762 41.723 159.76 3.6836-8.3984 24.289-142.79 21.984-191.35-3.1211-65.199-88.836-99.328-88.836-99.328z"/>
  <path d="m1001.2 683.06c-3.7812-8.8438-20.195-33.758-79.379-20.449 0.55078-18.203-5.5547-35.688-18.07-48.996-16.02-17.039-38.41-23.473-58.441-16.789-12.133 4.043-31.836 16.105-40.98 51.406-20.062-7.6094-39.684-7.5352-54.926 0.76953-14.027 7.6562-22.523 21.637-22.738 37.379-0.30078 23.664 17.316 47.555 48.359 65.543 7.1758 4.1641 16.344 1.7266 20.496-5.4492 4.1641-7.1758 1.7266-16.344-5.4492-20.496-24.816-14.387-33.527-29.688-33.406-39.203 0.085938-6.3008 3.8984-9.6953 7.1055-11.438 8.0625-4.3906 23.785-4.6445 43.754 7.8477 4.3672 2.7461 9.8398 3.0352 14.484 0.78125 4.6562-2.2422 7.8125-6.7188 8.375-11.844 2.832-25.547 11.734-42.637 24.406-46.848 8.6758-2.8906 19.297 0.58984 27.098 8.8672 10.645 11.328 13.105 27.73 6.5898 43.871-2.1953 5.4258-1.0195 11.652 3 15.898 4.0195 4.2617 10.164 5.7969 15.707 3.9258 44.258-14.941 64.164-8.3047 66.445-2.9883 2.5547 5.9531-6.8164 25.188-40.031 42.66-7.332 3.8633-10.152 12.938-6.2891 20.258 3.8633 7.332 12.938 10.152 20.258 6.2891 43.117-22.664 64.672-55.23 53.633-80.996zm-562.71-9.3086c12.145-20.305 13.453-44.543 8.1016-62.93-6.0586-20.832-19.945-34.824-37.129-37.414-11.16-1.6797-26.953 0.96094-44.438 18.805-9.5273-14.988-21.562-24.527-34.777-26.809-12.637-2.1836-24.707 2.4609-33.109 12.742-14.93 18.254-15.434 50.711-1.3555 86.82 3 7.7148 11.699 11.531 19.43 8.5312 7.7148-3.0117 11.531-11.711 8.5195-19.43-12.719-32.629-8.1016-51.145-3.3594-56.941 1.8711-2.293 3.3945-2.3867 4.7656-2.1602 4.7266 0.81641 14.809 8.0898 22.703 30.168 1.9219 5.3398 6.6953 9.168 12.336 9.8398 5.6406 0.67188 11.195-1.8945 14.316-6.6484 13.199-20.016 24.406-26.172 30.504-25.246 5.1484 0.76953 10.176 7.1055 12.793 16.129 4.3555 14.953 1.8359 36.059-13.598 49.477-4.043 3.5273-5.9023 8.9531-4.8594 14.23 1.0312 5.2695 4.8125 9.5898 9.9102 11.305 35.773 12.098 45.984 28.488 44.113 36.562-1.957 8.4492-17.207 15.73-41.629 12.574-8.2188-1.0664-15.742 4.7383-16.801 12.949-1.0547 8.207 4.7383 15.742 12.961 16.789 44.594 5.7617 69.648-13.703 74.711-35.555 4.4922-19.535-5.5039-45.203-44.109-63.789z"/>
  <path d="m390.57 699.46c-1.6562-2.3516-16.801-23.039-37.379-25.547-9.7695-1.1992-19.094 1.7656-26.953 8.5781-6.2656 5.4258-6.9492 14.891-1.5234 21.168 5.4258 6.2539 14.891 6.9375 21.156 1.5234 1.957-1.6914 2.9883-1.5703 3.6719-1.4883 5.0898 0.60156 12.887 8.0039 16.559 13.117l-0.035156-0.046875c4.7773 6.7695 14.137 8.375 20.902 3.6133 6.7578-4.8047 8.3789-14.164 3.6016-20.918z"/>
 </g>
</svg>
